<?xml version="1.0" encoding="UTF-8"?>
<svg width="395px" height="126px" viewBox="0 0 395 126" version="1.1" xmlns="http://www.w3.org/2000/svg" xmlns:xlink="http://www.w3.org/1999/xlink">
    <title>Group</title>
    <g id="Page-1" stroke="none" stroke-width="1" fill="none" fill-rule="evenodd">
        <g id="China" transform="translate(-425, -142)">
            <g id="Group" transform="translate(403, 141)">
                <g id="CHIMBA" transform="translate(127.989, 18.12)" fill-rule="nonzero">
                    <path d="M27.6200208,54.88 C22.1907327,54.88 17.3813653,53.7408041 13.1919185,51.4624123 C9.0024717,49.1840206 5.75829025,45.9868661 3.45937415,41.8709489 C1.16045805,37.7550318 0.011,33.0120503 0.011,27.6420046 C0.011,22.1951042 1.21255516,17.3700279 3.61566548,13.1667759 C6.0187758,8.96352388 9.33655753,5.69824822 13.5690107,3.37094893 C17.8014638,1.04364964 22.5543636,-0.12 27.82771,-0.12 C31.173813,-0.12 34.3174715,0.329425178 37.2586855,1.22827553 C40.1998995,2.12712589 42.8467124,3.37828506 45.1991242,4.98175305 L45.1991242,12.5253887 C43.1075476,10.4936306 40.5995438,8.90099212 37.6751127,7.74747332 C34.7506817,6.59395452 31.6112189,6.01719512 28.2567244,6.01719512 C24.1714719,6.01719512 20.518905,6.91656949 17.2990239,8.71531822 C14.0791428,10.5140669 11.5522581,13.040839 9.71836991,16.2956345 C7.8844817,19.55043 6.9675376,23.2899339 6.9675376,27.5141463 C6.9675376,31.6642988 7.84357324,35.3536725 9.5956445,38.5822675 C11.3477158,41.8108626 13.8317689,44.3114342 17.0478039,46.0839825 C20.263839,47.8565307 23.9924536,48.7428049 28.2336479,48.7428049 C31.852474,48.7428049 35.1942064,48.120282 38.2588451,46.8752363 C41.3234838,45.6301905 43.9075355,43.9882952 46.011,41.9495503 L46.011,49.1798285 C43.5690791,50.8769195 40.7329334,52.2512208 37.5025629,53.3027325 C34.2721924,54.3542442 30.9780118,54.88 27.6200208,54.88 Z" id="Path" fill="#000000"></path>
                    <path d="M91.2014491,0.88 L98.011,0.88 L98.011,54.88 L91.2014491,54.88 L91.2014491,0.88 Z M52.011,0.88 L58.8205509,0.88 L58.8205509,54.88 L52.011,54.88 L52.011,0.88 Z M56.6499804,24.8140234 L93.4336776,24.8140234 L93.4336776,31.1748438 L56.6499804,31.1748438 L56.6499804,24.8140234 Z" id="Shape" fill="#000000"></path>
                    <polygon id="Path" fill="#000000" points="110.011 0.88 117.011 0.88 117.011 54.88 110.011 54.88"></polygon>
                    <path d="M170.982177,0.88 L178.062994,0.88 L163.596,54.88 L156.574791,54.88 L170.982177,0.88 Z M128.011,0.88 L134.825149,0.88 L134.825149,54.88 L128.011,54.88 L128.011,0.88 Z M134.959006,0.88 L142.039823,0.88 L156.440934,54.88 L149.420771,54.88 L134.959006,0.88 Z M178.196851,0.88 L185.011,0.88 L185.011,54.88 L178.196851,54.88 L178.196851,0.88 Z" id="Shape" fill="#000000"></path>
                    <path d="M197.011,0.88 L219.156435,0.88 C224.295082,0.88 228.343661,2.20996094 231.302172,4.86988281 C234.260683,7.52980469 235.739938,11.1656641 235.739938,15.7774609 C235.739938,18.9042578 235.074359,21.595293 233.743202,23.8505664 C232.412044,26.1058398 230.496761,27.8146094 227.997354,28.976875 C225.497946,30.1391406 222.548906,30.7202734 219.150235,30.7202734 L201.887893,30.7202734 L201.887893,24.74125 L219.13267,24.74125 C221.159887,24.74125 222.915534,24.3960156 224.399612,23.7055469 C225.883689,23.0150781 227.022836,21.9886914 227.817053,20.6263867 C228.61127,19.264082 229.008379,17.6498828 229.008379,15.7837891 C229.008379,13.0240234 228.133225,10.8589258 226.382916,9.28849609 C224.632607,7.71806641 222.217925,6.93285156 219.13887,6.93285156 L203.743592,6.93285156 L203.743592,48.8271484 L220.846816,48.8271484 C223.134409,48.8271484 225.076212,48.4697852 226.672223,47.7550586 C228.268235,47.040332 229.485392,46.0007617 230.323694,44.6363477 C231.161996,43.2719336 231.581147,41.6345312 231.581147,39.7241406 C231.581147,37.144375 230.773153,35.0418555 229.157166,33.416582 C227.541178,31.7913086 225.212599,30.8886719 222.171429,30.7086719 L233.633162,30.7086719 C234.877872,31.6121875 235.918689,32.9055859 236.755613,34.5888672 C237.592538,36.2721484 238.011,38.2510938 238.011,40.5257031 C238.011,43.2116406 237.381929,45.6419922 236.123787,47.8167578 C234.865645,49.9915234 232.939858,51.7124219 230.346425,52.9794531 C227.752992,54.2464844 224.505863,54.88 220.605037,54.88 L197.011,54.88 L197.011,0.88 Z" id="Path" fill="#000000"></path>
                    <path d="M257.220295,0.88 L264.381915,0.88 L247.301705,54.88 L240.011,54.88 L257.220295,0.88 Z M251.036787,32.97625 L277.481465,32.97625 L278.738736,39.1514453 L249.769021,39.1514453 L251.036787,32.97625 Z M264.516247,0.88 L271.678916,0.88 L289.011,54.88 L281.713999,54.88 L264.516247,0.88 Z" id="Shape" fill="#000000"></path>
                    <g id="Layer_1" transform="translate(-131.989, -18.12)">
                        <ellipse id="Oval" fill="#177298" cx="64" cy="54" rx="35" ry="50"></ellipse>
                        <path d="M40.7,12.3 C38.1,14.8 39.9,19.2 43.5,19.2 C51,19.1 59,19 64,19 L84.3,19 C87.9,19 89.7,14.6 87.1,12.1 C81.6,6.7 74,4 64,4 C53.9,4 46.2,6.8 40.7,12.3 L40.7,12.3 Z" id="Path" fill="#EABD56"></path>
                        <path d="M98.8,58 C98.8,58 84.4,52.4 74.7,59.9 C71.9,57.8 66.4,56.7 59.8,56.3 C43.8,55.4 31.3,69.9 35,85.5 C35.1,85.8 35.1,86 35.2,86.1 C40.4,99.1 48.5,104 64,104 C87.3,104 96.5,90.3 98.8,59.9 L98.8,58 Z" id="Path" fill="#BE3530"></path>
                        <path d="M48.2,124.8 C47.9,124.8 47.6,124.8 47.3,124.7 C43.3,123.4 39.8,121.7 36.6,119.4 C35.3,118.4 34.9,116.6 35.9,115.2 C36.9,113.9 38.7,113.5 40.1,114.5 C42.8,116.4 45.8,117.9 49.2,119 C50.8,119.5 51.7,121.2 51.2,122.8 C50.7,124 49.5,124.8 48.2,124.8 L48.2,124.8 Z" id="Path" fill="#000000"></path>
                        <path d="M64,127 C62.3,127 61,125.7 61,124 C61,122.3 62.3,121 64,121 C86.4,121 93.6,110.3 99.9,100.9 C100.8,99.5 102.7,99.2 104.1,100.1 C105.5,101 105.8,102.9 104.9,104.3 C98.1,114.4 89.6,127 64,127 L64,127 Z" id="Path" fill="#000000"></path>
                        <path d="M64,107 C29.9,107 26,76.8 26,54 C26,31.2 29.9,1 64,1 C98.1,1 102,31.2 102,54 C102,76.8 98.1,107 64,107 Z M64,7 C49.1,7 32,12.3 32,54 C32,95.7 49.1,101 64,101 C78.9,101 96,95.7 96,54 C96,12.3 78.9,7 64,7 Z" id="Shape" fill="#000000"></path>
                        <path d="M99.9,55.2 C99.3,55 85.2,49.7 74.6,56.3 C74.4,56.2 74.3,56.1 74.1,56.1 C68.6,54.4 63.5,53.4 58.6,53.2 C50.6,52.9 43,56 37.7,61.9 C32.4,67.8 30,75.6 31.1,83.4 C31.1,83.4 33.2,90.1 34.7,90.1 L35.1,90.1 C36.7,89.9 37.9,88.3 37.6,86.7 L37,82.6 C36.1,76.6 38,70.5 42.1,66 C46.2,61.5 52.1,59 58.2,59.3 C61.6,59.5 65.2,60 69,61 C61.3,69 58.7,78.8 58.5,79.3 C58.1,80.9 59,82.5 60.6,83 L61.5,83 C62.8,83 64,82.1 64.4,80.8 C64.4,80.7 67.5,69.5 76.4,62.4 C84.5,56 97.6,60.8 97.7,60.9 C99.2,61.4 101.4,55.8 99.9,55.2 Z" id="Path" fill="#000000"></path>
                    </g>
                </g>
                <g id="TRANSLATE" transform="translate(127.6562, 78.2188)" fill="#000000" fill-rule="nonzero">
                    <polygon id="Path" points="27.34375 0.78125 27.34375 2.85666478 16.0051673 2.85666478 16.0051673 32.78125 11.6823327 32.78125 11.6823327 2.85666478 0.34375 2.85666478 0.34375 0.78125"></polygon>
                    <path d="M36.34375,0.78125 L46.6918215,0.78125 C48.4792157,0.78125 50.051025,0.986378205 51.4072495,1.39663462 C52.7634741,1.80689103 53.8923546,2.38205442 54.7938911,3.12212481 C55.6954276,3.8621952 56.3735399,4.74303984 56.8282279,5.76465875 C57.2829159,6.78627765 57.5102599,7.90040535 57.5102599,9.10704186 C57.5102599,10.1206165 57.3338723,11.0658151 56.9810971,11.9426376 C56.628322,12.8194602 56.1226776,13.607796 55.4641639,14.3076452 C54.8056503,15.0074943 54.013866,15.6067905 53.0888111,16.1055336 C52.1637563,16.6042766 51.1289491,16.9904003 49.9843897,17.2639046 L61.34375,32.78125 L56.0050858,32.78125 L45.1631291,17.7465592 L40.647607,17.7465592 L40.647607,32.78125 L36.34375,32.78125 L36.34375,0.78125 Z M40.647607,16.1296663 L44.1518403,16.1296663 C45.3904731,16.1296663 46.5389523,15.9687814 47.5972778,15.6470117 C48.6556032,15.325242 49.5688989,14.8707422 50.3371649,14.2835124 C51.1054308,13.6962827 51.7051486,12.9843671 52.1363182,12.1477658 C52.5674878,11.3111645 52.7830727,10.3699881 52.7830727,9.32423643 C52.7830727,8.35892722 52.6106048,7.47406046 52.2656691,6.66963612 C51.9207334,5.86521179 51.4346876,5.17742898 50.8075317,4.60628771 C50.1803759,4.03514643 49.4356283,3.58869093 48.573289,3.26692119 C47.7109497,2.94515146 46.7623765,2.78426659 45.7275694,2.78426659 L40.647607,2.78426659 L40.647607,16.1296663 Z" id="Shape"></path>
                    <path d="M80.4062983,-0.21875 L95.34375,31.78125 L90.7715492,31.78125 L85.936028,21.3505715 L71.8842905,21.3505715 L66.9290782,31.78125 L64.34375,31.78125 L79.520584,-0.21875 L80.4062983,-0.21875 Z M72.8657577,19.321073 L84.9545608,19.321073 L78.8742519,6.601309 L72.8657577,19.321073 Z" id="Shape"></path>
                    <polygon id="Path" points="103.34375 0.78125 105.939031 0.78125 127.03159 24.337791 127.03159 0.78125 129.34375 0.78125 129.34375 32.78125 128.164077 32.78125 105.72669 6.97785015 105.72669 32.1426691 103.34375 32.1426691"></polygon>
                    <path d="M151.156319,30.782692 C151.9744,30.782692 152.780905,30.6756264 153.575834,30.4614951 C154.370762,30.2473639 155.080795,29.9301325 155.705933,29.5098008 C156.331071,29.0894692 156.836584,28.5739681 157.222471,27.9632976 C157.608359,27.3526271 157.801302,26.6428217 157.801302,25.8338816 C157.801302,24.9614951 157.577488,24.1684165 157.129858,23.4546458 C156.682229,22.7408751 156.087962,22.0786545 155.347058,21.467984 C154.606154,20.8573134 153.753342,20.2783661 152.788623,19.7311419 C151.823904,19.1839176 150.832173,18.6406588 149.81343,18.1013654 C148.732945,17.5303488 147.664037,16.9395052 146.606705,16.3288347 C145.549373,15.7181642 144.60009,15.0281858 143.758855,14.2588996 C142.91762,13.4896134 142.238458,12.6172269 141.721369,11.6417403 C141.204279,10.6662536 140.945735,9.52818583 140.945735,8.22753695 C140.945735,7.0220575 141.154114,5.90381669 141.570872,4.87281453 C141.987631,3.84181236 142.601192,2.94959895 143.411556,2.1961743 C144.22192,1.44274964 145.221369,0.851906092 146.409902,0.423643655 C147.598436,-0.00461878154 148.95676,-0.21875 150.484875,-0.21875 C151.858634,-0.21875 153.089615,-0.0601342826 154.177818,0.257097152 C155.266021,0.574328587 156.223022,1.04621035 157.048822,1.67274243 C157.874621,2.29927451 158.580795,3.07252614 159.167344,3.9924973 C159.753893,4.91246846 160.240112,5.97519376 160.625999,7.18067322 L158.773739,8.06099045 C158.480464,7.14101929 158.090718,6.29639059 157.6045,5.52710436 C157.118281,4.75781813 156.527873,4.09956291 155.833276,3.55233868 C155.138678,3.00511446 154.328314,2.58081741 153.402184,2.27944755 C152.476054,1.97807769 151.42644,1.82739275 150.253342,1.82739275 C149.203728,1.82739275 148.285316,1.96618151 147.498105,2.24375901 C146.710894,2.52133652 146.058744,2.88615267 145.541655,3.33820746 C145.024566,3.79026226 144.634819,4.29783255 144.372416,4.86091835 C144.110012,5.42400415 143.978811,5.99898612 143.978811,6.58586428 C143.978811,7.299635 144.206484,7.9777172 144.661832,8.62011085 C145.117179,9.26250451 145.719163,9.87714041 146.467785,10.4640186 C147.216407,11.0508967 148.069219,11.6179479 149.02622,12.1651721 C149.983221,12.7123964 150.963375,13.2556552 151.966683,13.7949486 C153.078039,14.3818268 154.189395,15.0043935 155.300751,15.6626487 C156.412107,16.3209039 157.415415,17.0505362 158.310674,17.8515456 C159.205933,18.652555 159.93526,19.5328722 160.498656,20.4924973 C161.062052,21.4521224 161.34375,22.5267439 161.34375,23.7163618 C161.34375,24.9694259 161.119935,26.1471476 160.672306,27.2495269 C160.224676,28.3519061 159.56095,29.3115312 158.681126,30.1284021 C157.801302,30.9452731 156.701523,31.5916321 155.381787,32.0674793 C154.062052,32.5433264 152.530079,32.78125 150.785867,32.78125 C149.396672,32.78125 148.146396,32.6147035 147.03504,32.2816105 C145.923684,31.9485175 144.939671,31.4607742 144.083,30.8183805 C143.22633,30.1759868 142.493144,29.390839 141.883441,28.4629371 C141.273739,27.5350351 140.760509,26.4762752 140.34375,25.2866574 L142.311776,24.4539248 C142.620486,25.4532039 143.056539,26.3414519 143.619935,27.1186689 C144.183331,27.8958859 144.843199,28.5581065 145.599538,29.1053307 C146.355878,29.652555 147.20483,30.0689212 148.146396,30.3544295 C149.087962,30.6399378 150.091269,30.782692 151.156319,30.782692 Z" id="Path"></path>
                    <polygon id="Path" points="172.34375 0.78125 176.644573 0.78125 176.644573 30.7058352 192.34375 30.7058352 192.34375 32.78125 172.34375 32.78125"></polygon>
                    <path d="M212.406298,-0.21875 L227.34375,31.78125 L222.771549,31.78125 L217.936028,21.3505715 L203.884291,21.3505715 L198.929078,31.78125 L196.34375,31.78125 L211.520584,-0.21875 L212.406298,-0.21875 Z M204.865758,19.321073 L216.954561,19.321073 L210.874252,6.601309 L204.865758,19.321073 Z" id="Shape"></path>
                    <polygon id="Path" points="259.34375 0.78125 259.34375 2.85666478 248.005167 2.85666478 248.005167 32.78125 243.682333 32.78125 243.682333 2.85666478 232.34375 2.85666478 232.34375 0.78125"></polygon>
                    <polygon id="Path" points="289.34375 0.78125 289.34375 2.85666478 272.700893 2.85666478 272.700893 14.2955788 283.84375 14.2955788 283.84375 16.3709936 272.700893 16.3709936 272.700893 30.7058352 289.34375 30.7058352 289.34375 32.78125 268.34375 32.78125 268.34375 0.78125"></polygon>
                </g>
            </g>
        </g>
    </g>
</svg>