<?xml version="1.0" encoding="UTF-8"?>
<svg width="142px" height="142px" viewBox="0 0 142 142" version="1.1" xmlns="http://www.w3.org/2000/svg" xmlns:xlink="http://www.w3.org/1999/xlink">
    <title>Group</title>
    <g id="Page-1" stroke="none" stroke-width="1" fill="none" fill-rule="evenodd">
        <g id="China" transform="translate(-248, -399)">
            <g id="Group" transform="translate(248, 399)">
                <rect id="Rectangle" stroke="#979797" fill="#EABD56" x="0.5" y="0.5" width="141" height="141"></rect>
                <g id="Layer_1" transform="translate(35, 14)" fill-rule="nonzero">
                    <ellipse id="Oval" fill="#177298" cx="34.5" cy="48" rx="31.5" ry="45"></ellipse>
                    <path d="M13.1076958,10.6447368 C10.7663169,12.9473684 12.3872715,17 15.6291808,17 C22.3831584,16.9078947 29.5874013,16.8157895 34.090053,16.8157895 L52.3708192,16.8157895 C55.6127285,16.8157895 57.2336831,12.7631579 54.8923042,10.4605263 C49.9393873,5.48684211 43.0953566,3 34.090053,3 C24.9946965,3 18.0606127,5.57894737 13.1076958,10.6447368 L13.1076958,10.6447368 Z" id="Path" fill="#EABD56"></path>
                    <path d="M66,51.7992367 C66,51.7992367 53.0419429,46.7834916 44.3132516,53.5010073 C41.7936294,51.6201029 36.8443715,50.6348673 30.9052619,50.2765997 C16.5074207,49.4704979 5.2591072,62.457695 8.58860799,76.4301278 C8.6785945,76.6988284 8.6785945,76.8779622 8.76858101,76.967529 C13.4478794,88.611223 20.7367866,93 34.6846953,93 C55.6515516,93 63.9303103,80.7293379 66,53.5010073 L66,51.7992367 Z" id="Path" fill="#BE3530"></path>
                    <path d="M20.0577839,112 C19.7765199,112 19.4952559,112 19.213992,111.907927 C15.4638058,110.710984 12.1823929,109.14575 9.18224403,107.028081 C7.96343353,106.107355 7.58841491,104.450049 8.52596145,103.161033 C9.46350799,101.96409 11.1510918,101.595799 12.4636569,102.516525 C14.9950326,104.265904 17.8076722,105.646992 20.9953304,106.659791 C22.4954049,107.120154 23.3391967,108.685387 22.8704235,110.158549 C22.4016502,111.263419 21.2765944,112 20.0577839,112 L20.0577839,112 Z" id="Path" fill="#000000"></path>
                    <path d="M34.7019937,114 C33.1708639,114 32,112.814373 32,111.263937 C32,109.713502 33.1708639,108.527874 34.7019937,108.527874 C54.8768797,108.527874 61.3616645,98.7692502 67.0358513,90.1962532 C67.8464494,88.9194239 69.557712,88.6458176 70.8186424,89.4666365 C72.0795728,90.2874553 72.3497721,92.0202951 71.539174,93.2971245 C65.4146551,102.508536 57.7590063,114 34.7019937,114 L34.7019937,114 Z" id="Path" fill="#000000"></path>
                    <path d="M34.5,96 C3.54078947,96 5.68434189e-14,68.6490566 5.68434189e-14,48 C5.68434189e-14,27.3509434 3.54078947,0 34.5,0 C65.4592105,0 69,27.3509434 69,48 C69,68.6490566 65.4592105,96 34.5,96 Z M34.5,5.43396226 C20.9723684,5.43396226 5.44736842,10.2339623 5.44736842,48 C5.44736842,85.7660377 20.9723684,90.5660377 34.5,90.5660377 C48.0276316,90.5660377 63.5526316,85.7660377 63.5526316,48 C63.5526316,10.2339623 48.0276316,5.43396226 34.5,5.43396226 Z" id="Shape" fill="#000000"></path>
                    <path d="M66.5457171,49.0176898 C66.0023269,48.8344101 53.2326573,43.9774977 43.6327638,50.0257282 C43.4516337,49.9340884 43.3610687,49.8424485 43.1799386,49.8424485 C38.1988618,48.284571 33.5800452,47.3681724 29.1423586,47.1848927 C21.897156,46.9099731 15.0142135,49.7508087 10.2142667,55.1575602 C5.41432001,60.5643118 3.24075923,67.7122207 4.23697459,74.8601296 C4.23697459,74.8601296 6.13884027,81 7.49731576,81 L7.85957589,81 C9.30861642,80.8167203 10.3953968,79.3504826 10.1237017,77.8842449 L9.58031152,74.1270107 C8.76522622,68.6286193 10.4859618,63.038588 14.1991282,58.9147944 C17.9122945,54.7910008 23.2556315,52.5 28.7800984,52.774924 C31.8593096,52.9582037 35.1196507,53.416403 38.561122,54.3328015 C31.5876145,61.6639901 29.2329236,70.6446961 29.0517935,71.1028954 C28.6895334,72.5691331 29.5046187,74.0353708 30.9536592,74.4935701 L31.7687445,74.4935701 C32.9460899,74.4935701 34.0328703,73.6688114 34.3951305,72.4774933 C34.3951305,72.3858534 37.2026465,62.1221894 45.2629344,55.6157595 C52.598702,49.7508087 64.4627213,54.1495218 64.5532864,54.2411617 C65.9117618,54.699361 67.9041926,49.567529 66.5457171,49.0176898 Z" id="Path" fill="#000000"></path>
                </g>
            </g>
        </g>
    </g>
</svg>