<svg fill="none" height="512" viewBox="0 0 24 24" width="512" xmlns="http://www.w3.org/2000/svg"><g fill="rgb(0,0,0)"><path d="m15.1045 3.49049c.2458-.49458.846-.69627 1.3405-.45048 3.2903 1.63513 5.555 5.03217 5.555 8.95999 0 3.9278-2.2647 7.3249-5.555 8.96-.4945.2458-1.0947.0441-1.3405-.4505s-.0441-1.0947.4505-1.3405c2.6366-1.3103 4.445-4.0294 4.445-7.169 0-3.13962-1.8084-5.85869-4.445-7.16896-.4946-.24579-.6963-.84597-.4505-1.34055z"/><path d="m6 8h-2c-1.10457 0-2 .89543-2 2v4c0 1.1046.89543 2 2 2h2l4.3598 3.6332c.6513.5428 1.6402.0796 1.6402-.7682v-13.72995c0-.84784-.9889-1.311-1.6402-.76823z"/><path d="m16.7999 8.39943c-.3317-.44159-.9585-.53068-1.4001-.19899s-.5307.95855-.199 1.40014c.5021.66842.7992 1.49782.7992 2.39942s-.2971 1.731-.7992 2.3994c-.3317.4416-.2426 1.0685.199 1.4002s1.0684.2426 1.4001-.199c.7533-1.0029 1.2001-2.251 1.2001-3.6006s-.4468-2.59769-1.2001-3.60057z"/></g></svg>